<svg id="visual" viewBox="0 0 900 250" width="900" height="250" xmlns="http://www.w3.org/2000/svg" xmlns:xlink="http://www.w3.org/1999/xlink" version="1.1"><rect x="0" y="0" width="900" height="250" fill="#fd5322"></rect><defs><linearGradient id="grad1_0" x1="72.2%" y1="100%" x2="100%" y2="0%"><stop offset="-22%" stop-color="#f7770f" stop-opacity="1"></stop><stop offset="122%" stop-color="#f7770f" stop-opacity="1"></stop></linearGradient></defs><defs><linearGradient id="grad1_1" x1="72.2%" y1="100%" x2="100%" y2="0%"><stop offset="-22%" stop-color="#f7770f" stop-opacity="1"></stop><stop offset="122%" stop-color="#fa6618" stop-opacity="1"></stop></linearGradient></defs><defs><linearGradient id="grad1_2" x1="72.2%" y1="100%" x2="100%" y2="0%"><stop offset="-22%" stop-color="#fd5322" stop-opacity="1"></stop><stop offset="122%" stop-color="#fa6618" stop-opacity="1"></stop></linearGradient></defs><defs><linearGradient id="grad2_0" x1="0%" y1="100%" x2="27.8%" y2="0%"><stop offset="-22%" stop-color="#f7770f" stop-opacity="1"></stop><stop offset="122%" stop-color="#f7770f" stop-opacity="1"></stop></linearGradient></defs><defs><linearGradient id="grad2_1" x1="0%" y1="100%" x2="27.8%" y2="0%"><stop offset="-22%" stop-color="#fa6618" stop-opacity="1"></stop><stop offset="122%" stop-color="#f7770f" stop-opacity="1"></stop></linearGradient></defs><defs><linearGradient id="grad2_2" x1="0%" y1="100%" x2="27.8%" y2="0%"><stop offset="-22%" stop-color="#fa6618" stop-opacity="1"></stop><stop offset="122%" stop-color="#fd5322" stop-opacity="1"></stop></linearGradient></defs><g transform="translate(900, 250)"><path d="M-200 0C-190.9 -32.6 -181.8 -65.1 -166.3 -96C-150.7 -126.9 -128.8 -156.1 -100 -173.2C-71.2 -190.3 -35.6 -195.1 0 -200L0 0Z" fill="#fc5d1d"></path><path d="M-133.3 0C-127.3 -21.7 -121.2 -43.4 -110.9 -64C-100.5 -84.6 -85.9 -104.1 -66.7 -115.5C-47.5 -126.8 -23.7 -130.1 0 -133.3L0 0Z" fill="#f96f14"></path><path d="M-66.7 0C-63.6 -10.9 -60.6 -21.7 -55.4 -32C-50.2 -42.3 -42.9 -52 -33.3 -57.7C-23.7 -63.4 -11.9 -65 0 -66.7L0 0Z" fill="#f7770f"></path></g><g transform="translate(0, 0)"><path d="M200 0C195.7 36.6 191.5 73.3 173.2 100C154.9 126.7 122.7 143.5 91.5 158.5C60.3 173.5 30.2 186.7 0 200L0 0Z" fill="#fc5d1d"></path><path d="M133.3 0C130.5 24.4 127.6 48.9 115.5 66.7C103.3 84.5 81.8 95.6 61 105.7C40.2 115.7 20.1 124.5 0 133.3L0 0Z" fill="#f96f14"></path><path d="M66.7 0C65.2 12.2 63.8 24.4 57.7 33.3C51.6 42.2 40.9 47.8 30.5 52.8C20.1 57.8 10.1 62.2 0 66.7L0 0Z" fill="#f7770f"></path></g></svg>