<svg id="visual" viewBox="0 0 900 250" width="900" height="250" xmlns="http://www.w3.org/2000/svg" xmlns:xlink="http://www.w3.org/1999/xlink" version="1.1"><rect x="0" y="0" width="900" height="250" fill="#111a51"></rect><defs><linearGradient id="grad1_0" x1="72.2%" y1="100%" x2="100%" y2="0%"><stop offset="-22%" stop-color="#3a406c" stop-opacity="1"></stop><stop offset="122%" stop-color="#3a406c" stop-opacity="1"></stop></linearGradient></defs><defs><linearGradient id="grad1_1" x1="72.2%" y1="100%" x2="100%" y2="0%"><stop offset="-22%" stop-color="#3a406c" stop-opacity="1"></stop><stop offset="122%" stop-color="#343a68" stop-opacity="1"></stop></linearGradient></defs><defs><linearGradient id="grad1_2" x1="72.2%" y1="100%" x2="100%" y2="0%"><stop offset="-22%" stop-color="#2f3564" stop-opacity="1"></stop><stop offset="122%" stop-color="#343a68" stop-opacity="1"></stop></linearGradient></defs><defs><linearGradient id="grad1_3" x1="72.2%" y1="100%" x2="100%" y2="0%"><stop offset="-22%" stop-color="#2f3564" stop-opacity="1"></stop><stop offset="122%" stop-color="#292f61" stop-opacity="1"></stop></linearGradient></defs><defs><linearGradient id="grad1_4" x1="72.2%" y1="100%" x2="100%" y2="0%"><stop offset="-22%" stop-color="#242a5d" stop-opacity="1"></stop><stop offset="122%" stop-color="#292f61" stop-opacity="1"></stop></linearGradient></defs><defs><linearGradient id="grad1_5" x1="72.2%" y1="100%" x2="100%" y2="0%"><stop offset="-22%" stop-color="#242a5d" stop-opacity="1"></stop><stop offset="122%" stop-color="#1e2559" stop-opacity="1"></stop></linearGradient></defs><defs><linearGradient id="grad1_6" x1="72.2%" y1="100%" x2="100%" y2="0%"><stop offset="-22%" stop-color="#181f55" stop-opacity="1"></stop><stop offset="122%" stop-color="#1e2559" stop-opacity="1"></stop></linearGradient></defs><defs><linearGradient id="grad1_7" x1="72.2%" y1="100%" x2="100%" y2="0%"><stop offset="-22%" stop-color="#181f55" stop-opacity="1"></stop><stop offset="122%" stop-color="#111a51" stop-opacity="1"></stop></linearGradient></defs><defs><linearGradient id="grad2_0" x1="0%" y1="100%" x2="27.8%" y2="0%"><stop offset="-22%" stop-color="#3a406c" stop-opacity="1"></stop><stop offset="122%" stop-color="#3a406c" stop-opacity="1"></stop></linearGradient></defs><defs><linearGradient id="grad2_1" x1="0%" y1="100%" x2="27.8%" y2="0%"><stop offset="-22%" stop-color="#343a68" stop-opacity="1"></stop><stop offset="122%" stop-color="#3a406c" stop-opacity="1"></stop></linearGradient></defs><defs><linearGradient id="grad2_2" x1="0%" y1="100%" x2="27.8%" y2="0%"><stop offset="-22%" stop-color="#343a68" stop-opacity="1"></stop><stop offset="122%" stop-color="#2f3564" stop-opacity="1"></stop></linearGradient></defs><defs><linearGradient id="grad2_3" x1="0%" y1="100%" x2="27.8%" y2="0%"><stop offset="-22%" stop-color="#292f61" stop-opacity="1"></stop><stop offset="122%" stop-color="#2f3564" stop-opacity="1"></stop></linearGradient></defs><defs><linearGradient id="grad2_4" x1="0%" y1="100%" x2="27.8%" y2="0%"><stop offset="-22%" stop-color="#292f61" stop-opacity="1"></stop><stop offset="122%" stop-color="#242a5d" stop-opacity="1"></stop></linearGradient></defs><defs><linearGradient id="grad2_5" x1="0%" y1="100%" x2="27.8%" y2="0%"><stop offset="-22%" stop-color="#1e2559" stop-opacity="1"></stop><stop offset="122%" stop-color="#242a5d" stop-opacity="1"></stop></linearGradient></defs><defs><linearGradient id="grad2_6" x1="0%" y1="100%" x2="27.8%" y2="0%"><stop offset="-22%" stop-color="#1e2559" stop-opacity="1"></stop><stop offset="122%" stop-color="#181f55" stop-opacity="1"></stop></linearGradient></defs><defs><linearGradient id="grad2_7" x1="0%" y1="100%" x2="27.8%" y2="0%"><stop offset="-22%" stop-color="#111a51" stop-opacity="1"></stop><stop offset="122%" stop-color="#181f55" stop-opacity="1"></stop></linearGradient></defs><g transform="translate(900, 250)"><path d="M-250 0C-244 -44.7 -238.1 -89.5 -216.5 -125C-194.9 -160.5 -157.7 -186.8 -119 -206.1C-80.3 -225.4 -40.2 -237.7 0 -250L0 0Z" fill="#141d53"></path><path d="M-218.7 0C-213.5 -39.1 -208.3 -78.3 -189.4 -109.4C-170.6 -140.5 -138 -163.5 -104.1 -180.3C-70.3 -197.2 -35.1 -208 0 -218.7L0 0Z" fill="#1b2257"></path><path d="M-187.5 0C-183 -33.6 -178.6 -67.1 -162.4 -93.8C-146.2 -120.4 -118.3 -140.1 -89.3 -154.6C-60.2 -169.1 -30.1 -178.3 0 -187.5L0 0Z" fill="#21275b"></path><path d="M-156.2 0C-152.5 -28 -148.8 -55.9 -135.3 -78.1C-121.8 -100.3 -98.6 -116.8 -74.4 -128.8C-50.2 -140.9 -25.1 -148.6 0 -156.2L0 0Z" fill="#262d5f"></path><path d="M-125 0C-122 -22.4 -119 -44.7 -108.3 -62.5C-97.5 -80.3 -78.8 -93.4 -59.5 -103.1C-40.2 -112.7 -20.1 -118.9 0 -125L0 0Z" fill="#2c3263"></path><path d="M-93.7 0C-91.5 -16.8 -89.3 -33.6 -81.2 -46.9C-73.1 -60.2 -59.1 -70.1 -44.6 -77.3C-30.1 -84.5 -15.1 -89.1 0 -93.7L0 0Z" fill="#323866"></path><path d="M-62.5 0C-61 -11.2 -59.5 -22.4 -54.1 -31.3C-48.7 -40.1 -39.4 -46.7 -29.8 -51.5C-20.1 -56.4 -10 -59.4 0 -62.5L0 0Z" fill="#373d6a"></path><path d="M-31.2 0C-30.5 -5.6 -29.8 -11.2 -27.1 -15.6C-24.4 -20.1 -19.7 -23.4 -14.9 -25.8C-10 -28.2 -5 -29.7 0 -31.2L0 0Z" fill="#3a406c"></path></g><g transform="translate(0, 0)"><path d="M250 0C244.7 45.9 239.4 91.8 216.5 125C193.6 158.2 153 178.7 114 197.5C75 216.2 37.5 233.1 0 250L0 0Z" fill="#141d53"></path><path d="M218.8 0C214.1 40.2 209.5 80.3 189.4 109.4C169.4 138.4 133.9 156.4 99.8 172.8C65.6 189.2 32.8 204 0 218.8L0 0Z" fill="#1b2257"></path><path d="M187.5 0C183.5 34.4 179.6 68.8 162.4 93.7C145.2 118.7 114.8 134.1 85.5 148.1C56.2 162.1 28.1 174.8 0 187.5L0 0Z" fill="#21275b"></path><path d="M156.3 0C152.9 28.7 149.6 57.4 135.3 78.1C121 98.9 95.6 111.7 71.3 123.4C46.9 135.1 23.4 145.7 0 156.3L0 0Z" fill="#262d5f"></path><path d="M125 0C122.4 22.9 119.7 45.9 108.3 62.5C96.8 79.1 76.5 89.4 57 98.7C37.5 108.1 18.7 116.5 0 125L0 0Z" fill="#2c3263"></path><path d="M93.8 0C91.8 17.2 89.8 34.4 81.2 46.9C72.6 59.3 57.4 67 42.8 74C28.1 81.1 14.1 87.4 0 93.8L0 0Z" fill="#323866"></path><path d="M62.5 0C61.2 11.5 59.9 22.9 54.1 31.2C48.4 39.6 38.3 44.7 28.5 49.4C18.7 54 9.4 58.3 0 62.5L0 0Z" fill="#373d6a"></path><path d="M31.3 0C30.6 5.7 29.9 11.5 27.1 15.6C24.2 19.8 19.1 22.3 14.3 24.7C9.4 27 4.7 29.1 0 31.3L0 0Z" fill="#3a406c"></path></g></svg>